<svg width="117" height="117" viewBox="0 0 117 117" fill="none" xmlns="http://www.w3.org/2000/svg">
<path d="M58.4903 114.006C89.1395 114.006 113.985 89.1602 113.985 58.5111C113.985 27.862 89.1395 3.01597 58.4903 3.01597C27.8412 3.01597 2.99521 27.862 2.99521 58.5111C2.99521 89.1602 27.8412 114.006 58.4903 114.006Z" fill="#FFB95E"/>
<path d="M58.4905 0.334038L58.4913 0.334036C66.1341 0.313659 73.7052 1.80885 80.7665 4.73311C87.8277 7.65737 94.2391 11.9527 99.6298 17.3706L99.6303 17.3712C109.145 26.8866 115.067 39.4067 116.386 52.7985C117.705 66.1903 114.34 79.6251 106.864 90.8141C99.3886 102.003 88.2645 110.254 75.3876 114.161C62.5106 118.068 48.6774 117.389 36.2448 112.24C23.8122 107.092 13.5493 97.7914 7.20477 85.9244C0.860229 74.0574 -1.17346 60.3576 1.45021 47.1593C4.07389 33.961 11.1927 22.0806 21.5935 13.5424C31.9944 5.00413 45.0339 0.336251 58.4905 0.334038ZM87.8319 14.5985C79.1468 8.79531 68.9359 5.69786 58.4904 5.69786C44.4835 5.69786 31.0502 11.2621 21.1458 21.1665C11.2414 31.0709 5.67722 44.5042 5.67722 58.5111C5.67722 68.9566 8.77458 79.1675 14.5778 87.8526C20.381 96.5377 28.6293 103.307 38.2796 107.304C47.93 111.301 58.549 112.347 68.7938 110.31C79.0386 108.272 88.449 103.242 95.8351 95.8557C103.221 88.4696 108.251 79.0592 110.289 68.8144C112.327 58.5697 111.281 47.9507 107.284 38.3004C103.286 28.65 96.517 20.4017 87.8319 14.5985Z" fill="#013930" stroke="#013930" stroke-width="0.667661"/>
<g opacity="0.2">
<path d="M58.4903 99.1195C81.7263 99.1195 100.563 80.283 100.563 57.0471C100.563 33.8112 81.7263 14.9748 58.4903 14.9748C35.2544 14.9748 16.418 33.8112 16.418 57.0471C16.418 80.283 35.2544 99.1195 58.4903 99.1195Z" fill="#FF6A5E"/>
</g>
<path d="M60.8973 92.2436C58.8746 92.2391 56.8562 92.0556 54.8659 91.6953C54.3747 91.605 53.9246 91.3618 53.5799 91.0004C53.2353 90.639 53.0137 90.1779 52.9468 89.6829C51.9707 82.3026 51.3019 74.7797 50.6713 67.4981C50.5178 65.7325 50.3624 63.9705 50.2052 62.2123C48.8837 47.5667 52.3985 38.3111 60.4368 35.4489C61.8178 34.9523 63.2736 34.6964 64.7411 34.6923C69.0179 34.6923 73.3058 36.8855 76.804 40.9431C79.9376 44.5981 82.0219 49.034 82.8355 53.7792C83.3676 57.6453 83.6187 61.5449 83.5868 65.4473C83.6526 69.9929 83.7184 74.2917 84.6834 78.3767C84.7647 78.7259 84.7655 79.0891 84.6857 79.4387C84.6059 79.7883 84.4476 80.1151 84.2228 80.3945L84.009 80.6577C83.6161 81.1531 83.1969 81.6272 82.7533 82.0778C81.806 83.0947 80.797 84.0524 79.7321 84.9455C77.3916 86.953 74.7955 88.6419 72.0117 89.9681C68.5091 91.5148 64.715 92.2908 60.8864 92.2436H60.8973Z" fill="#FFEC7C"/>
<path d="M64.7301 37.0555C72.4559 37.0555 79.1728 45.8286 80.5271 54.163C81.8596 62.3274 80.5271 70.9689 82.3969 78.914L82.1666 79.1991C79.0991 82.8137 75.312 85.7493 71.0467 87.8187C67.8497 89.2233 64.3892 89.9282 60.8974 89.8858C59.0142 89.8817 57.1351 89.7092 55.2826 89.3704C54.0818 80.2793 53.369 71.0676 52.541 61.9984C51.7021 52.7319 52.4479 40.8005 61.2154 37.6696C62.3391 37.2638 63.5245 37.0561 64.7191 37.0555M64.7191 32.3345C62.9825 32.3378 61.2594 32.6402 59.6254 33.2282C53.2485 35.5038 46.0326 42.418 47.8366 62.4261C47.9938 64.1807 48.1509 65.9408 48.308 67.7064C48.9496 75.01 49.6076 82.5603 50.5891 89.99C50.7213 90.9804 51.164 91.9035 51.8536 92.6266C52.5432 93.3497 53.4443 93.8356 54.4273 94.0146C56.5587 94.4014 58.7202 94.5977 60.8864 94.6013C65.0517 94.6516 69.1791 93.8045 72.9878 92.1175C75.9653 90.7029 78.7421 88.8996 81.2455 86.7549C82.3838 85.8004 83.4623 84.7767 84.475 83.6898C84.9575 83.1415 85.3907 82.7138 85.7471 82.2587L86.0597 81.8749C86.509 81.316 86.8254 80.6623 86.985 79.9632C87.1446 79.2641 87.1431 78.5378 86.9809 77.8393C86.0816 74.0011 86.0214 69.8284 85.9556 65.4144C85.9894 61.3963 85.7291 57.381 85.1769 53.4008C83.5319 43.2679 75.2358 32.3345 64.7191 32.3345Z" fill="#013930"/>
<path d="M52.0861 50.895C52.0861 50.895 55.4582 52.0245 56.341 54.0149C57.2238 56.0053 53.4679 61.143 55.2444 63.3363C57.021 65.5296 62.685 65.9463 62.685 65.9463C62.685 65.9463 39.1073 75.169 25.2678 65.9463C16.1329 59.86 23.7929 55.8353 35.2856 59.86C46.7783 63.8846 52.0861 50.895 52.0861 50.895Z" fill="#FF952D" stroke="#013930" stroke-width="4.72101" stroke-linecap="round" stroke-linejoin="round"/>
<path d="M68.1352 54.0204C71.7541 54.0204 71.7596 48.4001 68.1352 48.4001C64.5109 48.4001 64.5163 54.0204 68.1352 54.0204Z" fill="#013930"/>
<path d="M38.6628 41.1847V39.6146C37.3169 39.4514 36.243 38.9688 35.4409 38.1668C34.6525 37.3511 34.2515 36.318 34.2379 35.0673H36.0323C36.0459 35.7878 36.2702 36.4267 36.7052 36.9841C37.1538 37.5279 37.8063 37.8745 38.6628 38.0241V32.6204C37.2354 32.2397 36.2158 31.7163 35.6041 31.0502C35.0059 30.3705 34.7069 29.5413 34.7069 28.5625C34.7069 27.6109 35.0467 26.8021 35.7264 26.1359C36.4197 25.4562 37.3985 25.0552 38.6628 24.9329V23.2812H40.0902V24.9125C41.3272 25.0348 42.306 25.4562 43.0265 26.1767C43.7606 26.8836 44.1344 27.7672 44.148 28.8276H42.374C42.3604 28.3382 42.1633 27.8624 41.7826 27.4002C41.4156 26.938 40.8514 26.6389 40.0902 26.503V31.3357C40.1581 31.3629 40.2261 31.3833 40.2941 31.3969C41.6127 31.7367 42.6323 32.2261 43.3528 32.8651C44.0869 33.4904 44.4539 34.3808 44.4539 35.5363C44.4539 36.284 44.2704 36.9569 43.9033 37.5551C43.5499 38.1396 43.0469 38.6154 42.3944 38.9824C41.7419 39.3495 40.9738 39.567 40.0902 39.635V41.1847H38.6628ZM36.4809 28.5421C36.4809 29.0587 36.6372 29.5005 36.9499 29.8675C37.2762 30.2346 37.8471 30.5744 38.6628 30.8871V26.4826C38.0238 26.5777 37.5005 26.8088 37.0926 27.1759C36.6848 27.5293 36.4809 27.9847 36.4809 28.5421ZM42.6799 35.6587C42.6799 34.9925 42.4827 34.4624 42.0885 34.0681C41.7079 33.6739 41.0418 33.3205 40.0902 33.0078V38.0852C40.933 37.9901 41.5719 37.7182 42.0069 37.2696C42.4555 36.8074 42.6799 36.2704 42.6799 35.6587Z" fill="#013930"/>
</svg>
