<svg width="514" height="120" viewBox="0 0 514 120" fill="none" xmlns="http://www.w3.org/2000/svg">
<path d="M58.4903 115.506C89.1395 115.506 113.985 90.6602 113.985 60.0111C113.985 29.362 89.1395 4.51595 58.4903 4.51595C27.8412 4.51595 2.99521 29.362 2.99521 60.0111C2.99521 90.6602 27.8412 115.506 58.4903 115.506Z" fill="#FFB95E"/>
<path d="M58.4905 1.83401L58.4913 1.83401C66.1341 1.81363 73.7052 3.30881 80.7665 6.23308C87.8277 9.15734 94.2391 13.4526 99.6298 18.8705L99.6303 18.8711C109.145 28.3865 115.067 40.9067 116.386 54.2985C117.705 67.6902 114.34 81.1251 106.864 92.314C99.3886 103.503 88.2645 111.754 75.3876 115.661C62.5106 119.568 48.6774 118.889 36.2448 113.74C23.8122 108.592 13.5493 99.2914 7.20477 87.4244C0.860229 75.5573 -1.17346 61.8576 1.45021 48.6593C4.07389 35.4609 11.1927 23.5806 21.5935 15.0423C31.9944 6.5041 45.0339 1.83622 58.4905 1.83401ZM87.8319 16.0985C79.1468 10.2953 68.9359 7.19783 58.4904 7.19783C44.4835 7.19783 31.0502 12.7621 21.1458 22.6665C11.2414 32.5709 5.67722 46.0041 5.67722 60.0111C5.67722 70.4565 8.77458 80.6674 14.5778 89.3525C20.381 98.0376 28.6293 104.807 38.2796 108.804C47.93 112.801 58.549 113.847 68.7938 111.81C79.0386 109.772 88.449 104.742 95.8351 97.3557C103.221 89.9696 108.251 80.5592 110.289 70.3144C112.327 60.0697 111.281 49.4507 107.284 39.8003C103.286 30.15 96.517 21.9017 87.8319 16.0985Z" fill="#013930" stroke="#013930" stroke-width="0.667661"/>
<g opacity="0.2">
<path d="M58.4903 100.619C81.7263 100.619 100.563 81.783 100.563 58.5471C100.563 35.3112 81.7263 16.4747 58.4903 16.4747C35.2544 16.4747 16.418 35.3112 16.418 58.5471C16.418 81.783 35.2544 100.619 58.4903 100.619Z" fill="#FF6A5E"/>
</g>
<path d="M60.8973 93.7436C58.8746 93.7391 56.8562 93.5556 54.8659 93.1953C54.3747 93.105 53.9246 92.8617 53.5799 92.5003C53.2353 92.1389 53.0137 91.6778 52.9468 91.1829C51.9707 83.8026 51.3019 76.2797 50.6713 68.998C50.5178 67.2325 50.3624 65.4705 50.2052 63.7123C48.8837 49.0667 52.3985 39.8111 60.4368 36.9489C61.8178 36.4523 63.2736 36.1963 64.7411 36.1922C69.0179 36.1922 73.3058 38.3855 76.804 42.443C79.9376 46.0981 82.0219 50.534 82.8355 55.2791C83.3676 59.1453 83.6187 63.0449 83.5868 66.9473C83.6526 71.4929 83.7184 75.7917 84.6834 79.8766C84.7647 80.2259 84.7655 80.589 84.6857 80.9386C84.6059 81.2882 84.4476 81.6151 84.2228 81.8944L84.009 82.1576C83.6161 82.6531 83.1969 83.1271 82.7533 83.5778C81.806 84.5947 80.797 85.5524 79.7321 86.4455C77.3916 88.453 74.7955 90.1419 72.0117 91.4681C68.5091 93.0148 64.715 93.7908 60.8864 93.7436H60.8973Z" fill="#FFEC7C"/>
<path d="M64.7301 38.5555C72.4559 38.5555 79.1728 47.3285 80.5271 55.6629C81.8596 63.8274 80.5271 72.4689 82.3969 80.414L82.1666 80.6991C79.0991 84.3137 75.312 87.2493 71.0467 89.3186C67.8497 90.7233 64.3892 91.4281 60.8974 91.3858C59.0142 91.3817 57.1351 91.2092 55.2826 90.8704C54.0818 81.7793 53.369 72.5676 52.541 63.4984C51.7021 54.2318 52.4479 42.3005 61.2154 39.1696C62.3391 38.7638 63.5245 38.556 64.7191 38.5555M64.7191 33.8345C62.9825 33.8378 61.2594 34.1401 59.6254 34.7282C53.2485 37.0037 46.0326 43.918 47.8366 63.9261C47.9938 65.6807 48.1509 67.4408 48.308 69.2064C48.9496 76.51 49.6076 84.0603 50.5891 91.49C50.7213 92.4804 51.164 93.4035 51.8536 94.1266C52.5432 94.8497 53.4443 95.3356 54.4273 95.5146C56.5587 95.9014 58.7202 96.0977 60.8864 96.1013C65.0517 96.1516 69.1791 95.3044 72.9878 93.6174C75.9653 92.2028 78.7421 90.3996 81.2455 88.2549C82.3838 87.3003 83.4623 86.2767 84.475 85.1898C84.9575 84.6415 85.3907 84.2138 85.7471 83.7587L86.0597 83.3749C86.509 82.816 86.8254 82.1623 86.985 81.4632C87.1446 80.764 87.1431 80.0378 86.9809 79.3393C86.0816 75.5011 86.0214 71.3284 85.9556 66.9144C85.9894 62.8962 85.7291 58.881 85.1769 54.9008C83.5319 44.7679 75.2358 33.8345 64.7191 33.8345Z" fill="#013930"/>
<path d="M52.0861 52.395C52.0861 52.395 55.4582 53.5245 56.341 55.5149C57.2238 57.5053 53.4679 62.643 55.2444 64.8363C57.021 67.0296 62.685 67.4463 62.685 67.4463C62.685 67.4463 39.1073 76.669 25.2678 67.4463C16.1329 61.36 23.7929 57.3353 35.2856 61.3599C46.7783 65.3846 52.0861 52.395 52.0861 52.395Z" fill="#FF952D" stroke="#013930" stroke-width="4.72101" stroke-linecap="round" stroke-linejoin="round"/>
<path d="M68.1352 55.5204C71.7541 55.5204 71.7596 49.9001 68.1352 49.9001C64.5109 49.9001 64.5163 55.5204 68.1352 55.5204Z" fill="#013930"/>
<path d="M38.6628 42.6847V41.1145C37.3169 40.9514 36.243 40.4688 35.4409 39.6668C34.6525 38.8511 34.2515 37.818 34.2379 36.5673H36.0323C36.0459 37.2878 36.2702 37.9267 36.7052 38.4841C37.1538 39.0278 37.8063 39.3745 38.6628 39.524V34.1203C37.2354 33.7397 36.2158 33.2163 35.6041 32.5502C35.0059 31.8705 34.7069 31.0413 34.7069 30.0625C34.7069 29.1109 35.0467 28.302 35.7264 27.6359C36.4197 26.9562 37.3985 26.5552 38.6628 26.4328V24.7811H40.0902V26.4124C41.3272 26.5348 42.306 26.9562 43.0265 27.6767C43.7606 28.3836 44.1344 29.2672 44.148 30.3276H42.374C42.3604 29.8382 42.1633 29.3624 41.7826 28.9002C41.4156 28.438 40.8514 28.1389 40.0902 28.003V32.8357C40.1581 32.8629 40.2261 32.8833 40.2941 32.8969C41.6127 33.2367 42.6323 33.7261 43.3528 34.365C44.0869 34.9904 44.4539 35.8808 44.4539 37.0363C44.4539 37.784 44.2704 38.4569 43.9033 39.055C43.5499 39.6396 43.0469 40.1154 42.3944 40.4824C41.7419 40.8495 40.9738 41.067 40.0902 41.1349V42.6847H38.6628ZM36.4809 30.0421C36.4809 30.5587 36.6372 31.0005 36.9499 31.3675C37.2762 31.7346 37.8471 32.0744 38.6628 32.3871V27.9826C38.0238 28.0777 37.5005 28.3088 37.0926 28.6759C36.6848 29.0293 36.4809 29.4847 36.4809 30.0421ZM42.6799 37.1586C42.6799 36.4925 42.4827 35.9623 42.0885 35.5681C41.7079 35.1739 41.0418 34.8204 40.0902 34.5078V39.5852C40.933 39.49 41.5719 39.2182 42.0069 38.7695C42.4555 38.3073 42.6799 37.7704 42.6799 37.1586Z" fill="#013930"/>
<path d="M176.883 52.0469C176.883 49.4427 176.766 47.6589 176.531 46.6953C176.297 45.7057 175.867 45.2109 175.242 45.2109C174.852 45.2109 174.5 45.3411 174.188 45.6016C174.24 46.0703 174.318 46.6953 174.422 47.4766C174.526 48.2578 174.578 49.9245 174.578 52.4766V55.0156C174.578 56.7865 174.539 58.0755 174.461 58.8828C174.383 59.6901 174.318 60.3802 174.266 60.9531C174.24 61.2656 174.214 61.5781 174.188 61.8906C174.5 62.151 174.852 62.2812 175.242 62.2812C175.867 62.2812 176.297 61.7995 176.531 60.8359C176.766 59.8464 176.883 58.0495 176.883 55.4453V52.0469ZM162.312 79.0391C159.422 79.0391 157.182 78.2708 155.594 76.7344C154.031 75.1979 153.25 72.8802 153.25 69.7812V34.625C153.25 32.6458 155.229 30.9792 159.188 29.625C163.172 28.2448 167.612 27.5547 172.508 27.5547C181.128 27.5547 187.859 29.638 192.703 33.8047C197.911 38.2839 200.516 44.9635 200.516 53.8438C200.516 61.8385 197.99 68.0365 192.938 72.4375C187.911 76.8385 180.997 79.0391 172.195 79.0391H162.312ZM224.344 61.9688C224.656 61.9688 224.995 61.8385 225.359 61.5781C225.099 60.7188 224.969 59.3776 224.969 57.5547V38.2578C227.729 36.5911 231.049 35.7578 234.93 35.7578C237.117 35.7578 239.031 36.0573 240.672 36.6562C242.339 37.2292 243.615 37.9974 244.5 38.9609V59.3125C244.5 63.1927 245.438 65.7188 247.312 66.8906C247.339 67.0208 247.352 67.2682 247.352 67.6328V68.3359C247.352 72.138 246.349 75.0156 244.344 76.9688C242.521 78.7917 240.008 79.7031 236.805 79.7031C234.799 79.7031 232.977 79.2474 231.336 78.3359C229.721 77.4245 228.51 76.0964 227.703 74.3516C226.818 74.3516 226.375 74.7812 226.375 75.6406C226.375 76.2396 226.674 76.8385 227.273 77.4375C226.44 78.1146 225.438 78.6615 224.266 79.0781C223.094 79.4948 221.362 79.7031 219.07 79.7031C216.805 79.7031 214.591 79.2344 212.43 78.2969C209.747 77.151 207.69 75.3932 206.258 73.0234C204.513 70.2109 203.641 66.6432 203.641 62.3203V52.5156C202.312 50.1979 201.648 47.6458 201.648 44.8594C201.648 43.4271 201.831 41.9427 202.195 40.4062C202.56 38.8698 203.146 37.5026 203.953 36.3047H212.547C215.776 36.3047 218.302 37.0729 220.125 38.6094C221.974 40.1198 222.898 42.4245 222.898 45.5234V58.1797C222.898 60.7057 223.38 61.9688 224.344 61.9688ZM270.086 80.2109C263.315 80.2109 257.911 78.1276 253.875 73.9609C249.865 69.7682 247.859 64.1562 247.859 57.125C247.859 50.0938 250.138 44.5339 254.695 40.4453C258.758 36.7995 263.836 34.9766 269.93 34.9766C275.346 34.9766 279.839 36.3177 283.406 39C286.974 41.6562 288.758 45.276 288.758 49.8594C288.758 53.0365 287.768 55.6276 285.789 57.6328C283.836 59.612 281.258 60.6016 278.055 60.6016C275.451 60.6016 273.276 59.9115 271.531 58.5312C269.812 57.125 268.797 55.3021 268.484 53.0625C267.339 53.0625 266.766 53.4792 266.766 54.3125C266.766 56.2135 267.703 57.9583 269.578 59.5469C271.74 61.4219 274.422 62.3594 277.625 62.3594C280.854 62.3594 283.523 61.6693 285.633 60.2891C286.935 62.2943 287.586 64.7292 287.586 67.5938C287.586 70.9271 286.154 73.7786 283.289 76.1484C280.008 78.8568 275.607 80.2109 270.086 80.2109ZM310.125 64.3125L308.25 65.1328C308.25 66.8776 308.589 68.7396 309.266 70.7188C309.839 72.5938 310.633 74.2604 311.648 75.7188C309.07 78.375 305.49 79.7031 300.906 79.7031C298.276 79.7031 295.997 79.013 294.07 77.6328C291.831 76.0703 290.711 74 290.711 71.4219V25.8359C291.961 25.1068 293.458 24.5078 295.203 24.0391C296.974 23.5703 298.758 23.3359 300.555 23.3359C303.549 23.3359 306.023 23.9219 307.977 25.0938C310.19 26.474 311.297 28.4531 311.297 31.0312V35.1719C311.297 38.6354 310.685 42.0208 309.461 45.3281C309.227 45.6667 308.81 46.1615 308.211 46.8125C307.612 47.4375 307.13 48.0104 306.766 48.5312C306.427 49.0521 306.258 49.5078 306.258 49.8984C306.258 50.263 306.57 50.6016 307.195 50.9141C309.227 49.013 310.815 46.9427 311.961 44.7031C313.133 42.4635 314.201 39.4948 315.164 35.7969C315.503 35.7448 315.893 35.6797 316.336 35.6016C316.779 35.5234 317.508 35.4062 318.523 35.25C319.565 35.0677 320.294 34.9766 320.711 34.9766C324.721 34.9766 327.846 35.901 330.086 37.75C332.326 39.5729 333.445 42.0859 333.445 45.2891C333.445 48.4922 332.43 51.2396 330.398 53.5312C328.523 55.5885 326.089 57.138 323.094 58.1797C325.49 59.5859 328.51 60.5885 332.156 61.1875C333.562 63.7396 334.266 66.4609 334.266 69.3516C334.266 72.2161 333.354 74.612 331.531 76.5391C329.5 78.6484 326.688 79.7031 323.094 79.7031C319.526 79.7031 316.583 78.3359 314.266 75.6016C311.974 72.8411 310.594 69.0781 310.125 64.3125ZM355.047 63.0234C355.307 63.2839 355.62 63.4141 355.984 63.4141C356.557 63.4141 356.948 63.0104 357.156 62.2031C357.365 61.3698 357.469 59.7031 357.469 57.2031V53.2188C357.469 52.5156 357.378 52.0208 357.195 51.7344C357.013 51.4479 356.714 51.3047 356.297 51.3047C355.88 51.3047 355.581 51.3958 355.398 51.5781V56.8125C355.398 58.375 355.281 60.4453 355.047 63.0234ZM356.609 31.0312V34.5078C354.422 34.638 352.417 34.9766 350.594 35.5234C348.771 36.0443 347.859 36.6562 347.859 37.3594C347.859 37.776 348.068 38.1146 348.484 38.375C351.349 36.9688 354.383 36.2656 357.586 36.2656C363.315 36.2656 368.003 38.2448 371.648 42.2031C375.32 46.1354 377.156 51.2656 377.156 57.5938C377.156 65.25 374.943 71.0182 370.516 74.8984C366.479 78.4401 360.984 80.2109 354.031 80.2109C347.104 80.2109 342 78.8698 338.719 76.1875C336.922 74.7031 336.023 72.776 336.023 70.4062V25.8359C337.273 25.1068 338.771 24.5078 340.516 24.0391C342.286 23.5703 344.07 23.3359 345.867 23.3359C348.862 23.3359 351.336 23.9219 353.289 25.0938C355.503 26.474 356.609 28.4531 356.609 31.0312ZM399.734 57.2422V64.0781C399.917 64.2604 400.216 64.3516 400.633 64.3516C401.049 64.3516 401.349 64.2083 401.531 63.9219C401.714 63.6354 401.805 63.1406 401.805 62.4375V56.8516C401.805 54.3516 401.701 52.6979 401.492 51.8906C401.284 51.0573 400.893 50.6406 400.32 50.6406C399.956 50.6406 399.643 50.7708 399.383 51.0312C399.617 53.6094 399.734 55.6797 399.734 57.2422ZM385.125 74.5469C380.854 70.4323 378.719 64.8594 378.719 57.8281C378.719 50.7708 380.724 45.2109 384.734 41.1484C388.771 37.0599 394.057 35.0156 400.594 35.0156C407.13 35.0156 412.417 37.138 416.453 41.3828C420.464 45.6276 422.469 51.1615 422.469 57.9844C422.469 64.7812 420.529 70.1849 416.648 74.1953C412.794 78.2057 407.547 80.2109 400.906 80.2109C394.266 80.2109 389.005 78.3229 385.125 74.5469ZM445.047 57.2422V64.0781C445.229 64.2604 445.529 64.3516 445.945 64.3516C446.362 64.3516 446.661 64.2083 446.844 63.9219C447.026 63.6354 447.117 63.1406 447.117 62.4375V56.8516C447.117 54.3516 447.013 52.6979 446.805 51.8906C446.596 51.0573 446.206 50.6406 445.633 50.6406C445.268 50.6406 444.956 50.7708 444.695 51.0312C444.93 53.6094 445.047 55.6797 445.047 57.2422ZM430.438 74.5469C426.167 70.4323 424.031 64.8594 424.031 57.8281C424.031 50.7708 426.036 45.2109 430.047 41.1484C434.083 37.0599 439.37 35.0156 445.906 35.0156C452.443 35.0156 457.729 37.138 461.766 41.3828C465.776 45.6276 467.781 51.1615 467.781 57.9844C467.781 64.7812 465.841 70.1849 461.961 74.1953C458.107 78.2057 452.859 80.2109 446.219 80.2109C439.578 80.2109 434.318 78.3229 430.438 74.5469ZM489.422 64.3125L487.547 65.1328C487.547 66.8776 487.885 68.7396 488.562 70.7188C489.135 72.5938 489.93 74.2604 490.945 75.7188C488.367 78.375 484.786 79.7031 480.203 79.7031C477.573 79.7031 475.294 79.013 473.367 77.6328C471.128 76.0703 470.008 74 470.008 71.4219V25.8359C471.258 25.1068 472.755 24.5078 474.5 24.0391C476.271 23.5703 478.055 23.3359 479.852 23.3359C482.846 23.3359 485.32 23.9219 487.273 25.0938C489.487 26.474 490.594 28.4531 490.594 31.0312V35.1719C490.594 38.6354 489.982 42.0208 488.758 45.3281C488.523 45.6667 488.107 46.1615 487.508 46.8125C486.909 47.4375 486.427 48.0104 486.062 48.5312C485.724 49.0521 485.555 49.5078 485.555 49.8984C485.555 50.263 485.867 50.6016 486.492 50.9141C488.523 49.013 490.112 46.9427 491.258 44.7031C492.43 42.4635 493.497 39.4948 494.461 35.7969C494.799 35.7448 495.19 35.6797 495.633 35.6016C496.076 35.5234 496.805 35.4062 497.82 35.25C498.862 35.0677 499.591 34.9766 500.008 34.9766C504.018 34.9766 507.143 35.901 509.383 37.75C511.622 39.5729 512.742 42.0859 512.742 45.2891C512.742 48.4922 511.727 51.2396 509.695 53.5312C507.82 55.5885 505.385 57.138 502.391 58.1797C504.786 59.5859 507.807 60.5885 511.453 61.1875C512.859 63.7396 513.562 66.4609 513.562 69.3516C513.562 72.2161 512.651 74.612 510.828 76.5391C508.797 78.6484 505.984 79.7031 502.391 79.7031C498.823 79.7031 495.88 78.3359 493.562 75.6016C491.271 72.8411 489.891 69.0781 489.422 64.3125Z" fill="#013930"/>
</svg>
